# xmcd
#
# Track frame offsets:
#	150
#	19615
#	47942
#	67162
#	89077
#
# Disc length: 1478 seconds
#
# Revision: 0
# Processed by: cddbd v1.5.2PL0 Copyright (c) Steve Scherf et al.
# Submitted via: EasyCDDAExtractor 11.5.0.1
#
DISCID=4405c405
DTITLE=Sherry Scott - High Stepping [CD 5)
DYEAR=1998
DGENRE=R&B
TTITLE0=Stepping/High Stepping (Radio Version)
TTITLE1=Stepping/High Stepping (Extended Version)
TTITLE2=Stepping/High Stepping (Instrumental Version)
TTITLE3=Wonderful (East Coast Version)
TTITLE4=Wonderful (West Coast Version)
EXTD=
EXTT0=
EXTT1=
EXTT2=
EXTT3=
EXTT4=
PLAYORDER=
